<svg xmlns="http://www.w3.org/2000/svg" viewBox="0 0 600.29999 162.33749" height="162.337" width="600.3"><defs><clipPath id="a"><path d="M0 0h4802v1298.75h-4802v-1298.75z"/></clipPath></defs><path d="M115.622 69.479h-50.446c-1.301 0-2.357 1.056-2.357 2.358v24.663c0 1.301 1.056 2.361 2.357 2.361h19.679v30.642s-4.42 1.506-16.635 1.506c-14.413 0-34.546-5.267-34.546-49.539 0-44.282 20.964-50.109 40.647-50.109 17.037 0 24.378 3 29.048 4.445 1.467.45 2.825-1.011 2.825-2.314l5.627-23.83c0-.609-.206-1.343-.901-1.841-1.897-1.353-13.468-7.827-42.7-7.827-33.677 0-68.22 14.327-68.22 83.203 0 68.877 39.549 79.141 72.877 79.141 27.595 0 44.335-11.792 44.335-11.792.69-.381.764-1.345.764-1.788v-76.921c0-1.302-1.054-2.358-2.355-2.358m259.973-61.232c0-1.313-1.04-2.371-2.341-2.371h-28.404c-1.298 0-2.353 1.059-2.353 2.371l.007 54.891h-44.274v-54.891c0-1.313-1.045-2.371-2.344-2.371h-28.402c-1.292 0-2.346 1.059-2.346 2.371v148.629c0 1.311 1.054 2.378 2.346 2.378h28.402c1.299 0 2.344-1.067 2.344-2.378v-63.574h44.274l-.077 63.574c0 1.311 1.054 2.378 2.353 2.378h28.471c1.301 0 2.341-1.067 2.344-2.378v-148.629m-206.374 19.503c0-10.227-8.2-18.492-18.316-18.492-10.106 0-18.313 8.265-18.313 18.492 0 10.217 8.206 18.504 18.313 18.504 10.116 0 18.316-8.287 18.316-18.504m-2.031 97.773v-68.607c0-1.303-1.051-2.368-2.35-2.368h-28.314c-1.299 0-2.461 1.34-2.461 2.642v98.294c0 2.889 1.8 3.748 4.13 3.748h25.51c2.799 0 3.485-1.374 3.485-3.793v-29.915m316.351-70.752h-28.186c-1.292 0-2.345 1.065-2.345 2.376v72.877s-7.16 5.239-17.324 5.239c-10.162 0-12.86-4.611-12.86-14.563v-63.554c0-1.311-1.05-2.376-2.344-2.376h-28.606c-1.291 0-2.349 1.065-2.349 2.376v68.366c0 29.558 16.474 36.789 39.136 36.789 18.591 0 33.581-10.271 33.581-10.271s.714 5.413 1.036 6.055c.324.64 1.165 1.287 2.074 1.287l18.199-.08c1.291 0 2.349-1.067 2.349-2.373l-.009-99.773c0-1.311-1.054-2.376-2.353-2.376m65.92 80.403c-9.776-.298-16.407-4.734-16.407-4.734v-47.068s6.543-4.01 14.569-4.726c10.15-.909 19.93 2.157 19.93 26.37 0 25.532-4.414 30.571-18.091 30.159zm11.117-83.742c-16.009 0-26.898 7.143-26.898 7.143v-50.328c0-1.313-1.049-2.371-2.344-2.371h-28.484c-1.295 0-2.348 1.059-2.348 2.371v148.629c0 1.311 1.052 2.378 2.351 2.378h19.762c.89 0 1.564-.458 2.061-1.262.491-.799 1.2-6.853 1.2-6.853s11.648 11.038 33.696 11.038c25.885 0 40.73-13.13 40.73-58.943 0-45.814-23.709-51.801-39.729-51.801m-311.751 3.102h-21.306l-.033-28.148c0-1.065-.549-1.597-1.78-1.597h-29.035c-1.129 0-1.735.496-1.735 1.581v29.087s-14.55 3.513-15.534 3.796c-.98.284-1.701 1.188-1.701 2.266v18.278c0 1.314 1.05 2.374 2.349 2.374h14.886v43.973c0 32.661 22.91 35.87 38.37 35.87 7.064 0 15.514-2.269 16.909-2.784.844-.31 1.334-1.184 1.334-2.131l.024-20.108c0-1.311-1.107-2.372-2.355-2.372-1.241 0-4.418.505-7.688.505-10.465 0-14.011-4.866-14.011-11.165 0-6.294-.001-41.788-.001-41.788h21.308c1.299 0 2.35-1.06 2.35-2.374v-22.895c0-1.312-1.051-2.368-2.35-2.368" clip-path="url(#a)"/></svg>