<svg xmlns="http://www.w3.org/2000/svg" width="240" height="90" viewBox="0 0 240 90"><path d="M114.243 52.736c-10.041 0-12.292-6.876-12.292-15.428 0-7.712 2.288-14.785 12.292-14.785 10.009 0 12.416 7.072 12.416 14.785-.001 8.552-2.412 15.428-12.416 15.428zm0-25.591c-5.301 0-6.831 3.333-6.831 10.164 0 7.634 1.567 10.853 6.831 10.853 5.306 0 6.949-3.26 6.949-10.853-.005-6.831-1.607-10.164-6.949-10.164zm25.007 14.908h-4.702c.082.278.281.762.281 1.041v9.041h-5.387v-28.968h9.808c7.397 0 10.768 3.936 10.768 9.196.009 5.228-3.288 9.689-10.758 9.689h-.01zm0-14.31h-4.421v9.725h4.421c3.616 0 5.305-1.809 5.305-5.105 0-3.091-1.771-4.62-5.305-4.62zm13.049 24.391v-28.967h19.288v4.497h-13.9v6.955h12.695l-1.325 4.498h-11.534c.12.278.164.603.164.767v7.749h13.936v4.502h-19.324zm38.109.028l-6.668-10.205c-.199-.284-.29-.644-.363-.969h-3.38v11.174h-5.38v-28.971h9.837c7.359 0 10.729 3.616 10.729 8.962 0 3.936-1.926 6.831-6.018 8.113l7.707 11.896h-6.464zm-5.946-24.469h-4.465v8.798h4.465c3.772 0 5.261-1.689 5.261-4.337 0-2.896-1.6-4.46-5.269-4.46h.008zm33.944 24.469l-2.493-7.352h-10.165l-2.527 7.352h-5.58l10.483-28.971h5.497l10.446 28.971h-5.671.01zm-6.996-20.488c-.281-.767-.521-1.772-.603-2.292-.083.562-.328 1.567-.565 2.292l-2.969 8.634h7.068l-2.931-8.634z"/><path fill="#9C9E9F" d="M109.832 81c-2.958 0-5.566-1.114-6.776-3.727l2.831-1.014c.763 1.436 2.096 2.074 3.945 2.074 2.292 0 3.822-.806 3.822-2.677 0-1.177-.639-1.909-1.914-2.127l-4.168-.729c-2.607-.457-4.164-2.01-4.164-4.841 0-3.123 2.484-4.995 6.68-4.995 3.118 0 5.314 1.086 6.46 3.149l-2.58 1.307c-.73-1.086-1.845-1.762-3.849-1.762-2.165 0-3.433.711-3.433 2.301 0 .922.352 1.653 1.685 1.881l4.003.657c2.517.42 4.617 1.826 4.617 4.877-.005 4.101-3.383 5.625-7.164 5.625h.005zm16.123 0c-5.763 0-7.832-3.434-7.832-9.031 0-5.599 2.069-9.004 7.832-9.004 5.752 0 7.852 3.405 7.852 9.004.01 5.598-2.1 9.04-7.852 9.04v-.009zm0-15.332c-3.188 0-4.489 1.561-4.489 6.301 0 4.739 1.302 6.33 4.489 6.33 3.177 0 4.446-1.591 4.446-6.33 0-4.74-1.269-6.301-4.446-6.301zm18.656-7.114c-.529-.082-1.006-.109-1.562-.109-1.753 0-2.959.804-2.959 3.379v1.615h4.339l-.631 2.768h-3.708v14.32h-3.342v-13.141c0-.347.163-.732.328-1.18h-2.948v-2.768h2.62v-1.615c0-4.84 2.995-6.082 6.337-6.082.74 0 1.461.101 2.184.236l-.647 2.576h-.011zm8.866 22.446c-2.739 0-5.313-1.077-5.313-4.831v-8.875c0-.321.064-.641.32-1.088h-3.114v-2.768h2.794v-5.788l3.342-.987v6.775h5.809l-.896 2.768h-4.913v9.963c0 1.498 1.015 2.073 2.192 2.073.985 0 1.817-.356 2.802-1.023l1.947 1.938c-1.316 1.212-3.197 1.843-4.97 1.843zm23.378-.474h-3.031l-3.243-9.864c-.228-.639-.41-1.178-.474-2.1-.064.922-.284 1.461-.502 2.1l-3.251 9.864h-3.023l-5.471-17.088h3.278l3.206 10.055c.128.384.329 1.315.475 3.061.229-1.745.356-2.329.586-2.996l3.241-10.119h2.894l3.251 10.119c.22.667.347 1.251.566 2.996.165-1.745.348-2.677.475-3.061l3.216-10.055h3.288l-5.473 17.088h-.008zm17.352 0l-.356-1.243c-1.717 1.151-3.37 1.717-5.38 1.717-4.2 0-6.044-2.374-6.044-5.753 0-4.421 3.276-5.479 6.52-5.479 1.534 0 3.251.228 4.649.547v-2.191c0-1.625-.859-2.465-3.152-2.465-1.908 0-3.497.455-4.611 2.08l-2.512-1.47c1.461-2.51 4.229-3.305 7.188-3.305 5.47 0 6.429 2.694 6.429 5.188v12.374h-2.731zm-.611-7.725c-1.233-.202-2.604-.422-3.973-.422-2.202 0-3.818.731-3.818 2.868 0 2.319 1.242 2.995 2.666 2.995 2.064 0 3.407-.512 5.125-1.626v-3.815zm12.756-6.978c-.986 0-1.973.2-2.702.803l-1.114.924v12.977h-3.344v-17.089h2.741l.411 1.628 1.177-.988c1.022-.857 2.137-1.113 3.37-1.113.54 0 1.051.062 1.597.137v2.922c-.675-.092-1.404-.19-2.136-.19v-.011zm5.716 7.196c.055 3.598 1.232 5.224 4.703 5.224 2.229 0 3.661-.714 4.575-2.484l2.84 1.078c-1.406 2.866-3.596 4.163-7.415 4.163-5.561 0-8.045-2.831-8.045-9.031 0-5.599 1.898-9.004 8.045-9.004 6.583 0 7.605 5.251 7.605 9.004v1.05h-12.316.008zm4.703-7.288c-3.051 0-4.447 1.077-4.676 4.584h8.749c-.064-2.648-1.214-4.584-4.073-4.584z"/><path d="M72.135 7.917c-6.447-4.456-14.424-6.917-23.424-6.917-8.227 0-15.602 2.059-21.734 5.817-11.817 7.164-19.09 20.579-19.09 37.766 0 23.248 16.323 44.417 40.81 44.417 24.492 0 40.812-21.169 40.812-44.417 0-16.342-6.575-29.273-17.374-36.661v-.005zm-23.424.859c13.136 0 15.807 18.332 15.807 34.975 0 15.423-1.488 36.062-15.647 36.062-14.163 0-15.994-20.839-15.994-36.262.004-16.639 2.699-34.775 15.834-34.775zm177.658 15.072v3.553h-.786v-3.553h-1.206v-.657h3.196v.657h-1.204zm4.985 3.553l-.192-2.498.01-.289-.822 1.868h-.656l-.822-1.863.018.301-.191 2.48h-.758l.31-4.21h.677l1.04 2.223.066.201.044-.205 1.041-2.219h.676l.319 4.214h-.758v-.003z"/></svg>