<svg xmlns="http://www.w3.org/2000/svg" viewBox="0 0 3945.925 1171.35" height="1171.35" width="3945.925"><defs><clipPath id="a"><path d="M0 0h14668.8v4354h-14668.8v-4354z"/></clipPath></defs><g clip-path="url(#a)"><path d="M3945.907 1171.349l-3945.907.001.001-1171.35h3945.906v1171.349" fill="none"/><path d="M1659.055 563.335c-16.387 0-29.001 3.519-29.001 18.674v14.827c0 15.137 12.613 19.061 29.001 19.061 16.425 0 29.036-3.925 29.036-19.061v-14.827c0-15.155-12.611-18.674-29.036-18.674m11.798 82.217h-23.137c-7.661 0-13.888 6.209-13.888 13.883v198.718c0 7.656 6.227 13.897 13.888 13.897h23.137c7.65 0 13.875-6.241 13.875-13.897v-198.718c0-7.675-6.225-13.883-13.875-13.883m-675.478-2.314c-33.647 0-57.216 14.714-74.871 38.273-11.763-23.559-34.486-38.273-66.454-38.273-34.061 0-53.402 18.51-67.707 38.273l-.008-22.093c0-7.656-6.209-13.867-13.891-13.867h-23.112c-7.667 0-13.88 6.211-13.88 13.867v198.735c0 7.672 6.214 13.897 13.88 13.897h23.112c7.683 0 13.891-6.225 13.891-13.897l.008-113.537c0-34.069 19.341-55.118 47.527-55.118 28.172 0 44.996 19.355 44.996 53.848v114.807c0 7.672 6.225 13.897 13.891 13.897h23.121c7.667 0 13.883-6.225 13.883-13.897v-113.537c0-35.764 19.763-55.118 47.527-55.118 28.595 0 44.996 18.948 44.996 54.257l.016 114.398c0 7.672 6.209 13.897 13.867 13.897h23.126c7.667 0 13.883-6.225 13.883-13.897v-129.959c0-54.257-29.434-84.956-77.8-84.956m2146.948-79.903c-16.382 0-29.025 3.519-29.025 18.674v14.827c0 15.137 12.643 19.061 29.025 19.061 16.436 0 29.025-3.925 29.025-19.061v-14.827c0-15.155-12.589-18.674-29.025-18.674m11.809 82.217h-23.161c-7.64 0-13.854 6.209-13.854 13.883v198.718c0 7.656 6.214 13.897 13.854 13.897h23.161c7.64 0 13.827-6.241 13.827-13.897v-198.718c0-7.675-6.187-13.883-13.827-13.883m-2802.781-23.185c22.144 0 43.075 7.056 60.557 20.353 2.338 1.792 5.141 2.736 8.089 2.736 3.562 0 6.908-1.385 9.442-3.911l17.8-17.792c2.674-2.687 4.1-6.402 3.895-10.2-.213-3.779-2.028-7.314-5.003-9.695-27.069-21.671-59.853-33.125-94.779-33.125-83.806 0-152.002 68.173-152.002 152.004 0 83.815 68.196 152.004 152.002 152.004 34.927 0 67.702-11.473 94.771-33.127 2.967-2.362 4.794-5.913 4.987-9.676.213-3.814-1.213-7.529-3.887-10.2l-17.8-17.792c-2.542-2.512-5.888-3.895-9.458-3.895-2.94 0-5.727.912-8.073 2.703-17.493 13.297-38.413 20.336-60.541 20.336-55.325 0-100.352-45.004-100.352-100.353s45.026-100.369 100.352-100.369m1532.35 137.14c0 42.478-29.187 71.105-62.411 71.105-33.652 0-60.062-27.355-60.062-71.105v-.847c0-42.884 26.838-71.054 60.062-71.054s62.411 28.595 62.411 71.054v.847zm41.625-113.956h-23.112c-7.675 0-13.899 6.209-13.899 13.883v22.273c-16.387-23.139-39.524-38.273-75.699-38.273-52.162 0-103.038 41.222-103.038 115.226v.847c0 73.598 50.451 115.248 103.038 115.248 36.988 0 60.124-16.99 75.699-37.604l.412-.525v20.562c0 38.273-29.563 73.322-70.774 73.322-25.324 0-48.538-11.732-60.162-31.463-3.976-6.518-12.476-8.619-19.024-4.646l-9.775 6.486c-6.574 3.975-8.675 12.531-4.713 19.097 19.112 31.235 52.998 52.024 95.899 52.024 73.612 0 119.024-52.562 119.024-115.649v-196.927c0-7.675-6.211-13.883-13.875-13.883m1077.008-2.115c-34.513 0-55.118 17.498-69.402 38.077v-22.093c0-7.656-6.241-13.867-13.907-13.867h-23.134c-7.613 0-13.854 6.211-13.854 13.867v198.735c0 7.672 6.241 13.897 13.854 13.897h23.134c7.667 0 13.907-6.225 13.907-15.984v-119.659c0-26.954 21.843-48.799 48.797-48.799 26.954 0 48.797 21.845 48.797 48.799v121.747c0 7.672 6.214 13.897 13.854 13.897h23.134c7.64 0 13.88-6.225 13.88-13.897v-129.763c0-51.309-29.052-84.956-79.059-84.956m-907.134-.001c-34.513 0-55.113 17.498-69.413 38.077v-22.093c0-7.656-6.225-13.867-13.875-13.867h-23.137c-7.64 0-13.851 6.211-13.851 13.867v198.735c0 7.672 6.211 13.897 13.851 13.897h23.137c7.65 0 13.875-6.225 13.875-15.984v-119.659c0-26.954 21.848-48.799 48.799-48.799 26.948 0 48.799 21.845 48.799 48.799v121.747c0 7.672 6.225 13.897 13.851 13.897h23.137c7.661 0 13.888-6.225 13.888-13.897v-129.763c0-51.309-29.039-84.956-79.062-84.956m1645.62 2.613c-.619-.291-1.13-.476-1.453-.584-.538-.153-1.13-.293-1.775-.42-4.734-1.065-9.63-1.611-14.687-1.611-26.523 0-49.442 15.476-60.202 37.886v-21.886c0-7.675-6.214-13.883-13.88-13.883h-23.134c-7.613 0-13.88 6.209-13.88 13.883v198.735c0 7.656 6.268 13.88 13.88 13.88h23.134c7.667 0 13.88-6.225 13.88-13.88v-84.127c0-67.928 35.454-80.149 55.925-78.486 4.008.328 7.532.866 10.518 1.272 0 0 1.13.126 1.722.169.296.024.565.035.861.035 4.761 0 8.716-3.381 9.63-7.876l5.111-32.678c.081-.484.108-.985.108-1.488 0-3.97-2.367-7.398-5.757-8.942m-935.906 113.162v.707c0 38.838-27.035 70.249-66.524 70.677-39.462-.428-66.508-31.839-66.508-70.677v-1.415c0-38.841 27.045-70.252 66.508-70.68 39.489.428 66.524 31.839 66.524 70.68v.707zm-66.524-115.775c-68.132 0-118.156 51.731-118.156 115.229v1.092c0 63.495 50.023 115.226 118.156 115.226 68.165 0 118.172-51.731 118.172-115.226v-1.092c0-63.497-50.007-115.229-118.172-115.229m795.379 115.775v.707c0 38.838-27.035 70.249-66.524 70.677-39.489-.428-66.524-31.839-66.524-70.677v-1.415c0-38.841 27.035-70.252 66.524-70.68 39.489.428 66.524 31.839 66.524 70.68v.707zm-66.524-115.775c-68.138 0-118.145 51.731-118.145 115.229v1.092c0 63.495 50.007 115.226 118.145 115.226s118.172-51.731 118.172-115.226v-1.092c0-63.497-50.034-115.229-118.172-115.229m-887.237-69.59h-23.212c-4.562 0-8.538 2.217-11.112 5.59l-95.624 130.634-95.624-130.634c-2.577-3.373-6.55-5.59-11.112-5.59h-23.212c-7.65 0-13.875 6.225-13.875 13.899v270.41c0 7.672 6.225 13.897 13.875 13.897h23.137c7.661 0 13.886-6.225 13.886-13.897v-187.574l84.463 108.369.199.229.689.861h.024c1.864 2.085 4.525 3.419 7.551 3.422 3.026-.003 5.687-1.337 7.551-3.422h.038l.673-.861.202-.229 84.461-108.369v187.574c0 7.672 6.225 13.897 13.888 13.897h23.137c7.65 0 13.875-6.225 13.875-13.897v-270.41c0-7.675-6.225-13.899-13.875-13.899m-129.938 209.618l-.013-.003-.013.003h.027m-1163.194-23.952c0 42.478-29.189 71.105-62.413 71.105-33.657 0-60.073-27.357-60.073-71.105v-.847c0-42.884 26.849-71.056 60.073-71.056 33.224 0 62.413 28.595 62.413 71.056v.847zm-51.398-116.076c-36.162 0-59.301 14.94-75.699 38.077v-22.077c0-7.675-6.217-13.883-13.891-13.883h-23.121c-7.667 0-13.883 6.209-13.883 13.883v291.673c0 7.673 6.217 13.912 13.883 13.912h23.121c7.675 0 13.891-6.24 13.891-13.912v-114.48c15.57 20.613 38.706 38.128 75.699 38.128 52.584 0 103.046-41.649 103.046-115.245v-.847c0-74.007-50.887-115.229-103.046-115.229m-598.84 116.076c0 42.478-29.181 71.105-62.405 71.105-33.655 0-60.073-27.357-60.073-71.105v-.847c0-42.884 26.849-71.056 60.073-71.056 33.224 0 62.405 28.595 62.405 71.056v.847zm65.246 76.579l-.003.003v-.003c-5.426.003-9.813-4.39-9.813-9.808v-166.847c0-7.675-6.214-13.883-13.88-13.883h-23.121c-7.667 0-13.883 6.209-13.883 13.883v22.077c-16.406-23.137-39.543-38.077-75.715-38.077-52.148 0-103.04 41.222-103.04 115.229v.847c0 73.596 50.47 115.242 103.04 115.242 38.104 0 64.988-17.087 76.549-38.123 5.813 20.447 24.63 35.422 46.943 35.422v-.003l12.92.003c5.415 0 9.808-4.39 9.808-9.81l.003-16.339c0-5.42-4.387-9.813-9.808-9.813m832.563-76.579c0 42.478-29.173 71.105-62.4 71.105-33.663 0-60.073-27.357-60.073-71.105v-.847c0-42.884 26.849-71.056 60.073-71.056 33.227 0 62.4 28.595 62.4 71.056v.847zm65.251 76.579v.003-.003c-5.426.003-9.813-4.39-9.813-9.808v-166.847c0-7.675-6.225-13.883-13.888-13.883h-23.123c-7.664 0-13.875 6.209-13.875 13.883v22.077c-16.412-23.137-39.551-38.077-75.713-38.077-52.148 0-103.051 41.222-103.051 115.229v.847c0 73.596 50.475 115.242 103.051 115.242 38.098 0 64.988-17.087 76.536-38.123 5.827 20.447 24.638 35.422 46.951 35.422v-.003l12.925.003c5.412 0 9.8-4.39 9.8-9.81v-16.339c0-5.42-4.387-9.813-9.8-9.813m1724.194-190.538h-48.339v-61.988c0-1.921-.565-3.857-1.775-5.552-3.094-4.439-9.2-5.517-13.638-2.408v.003l-24.183 16.96c-6.806 4.651-11.298 12.482-11.298 21.359v31.626h-16.382c-7.667 0-13.907 6.227-13.907 13.867v14.305c0 7.672 6.241 13.883 13.907 13.883h16.382v122.185c0 48.783 26.47 65.189 63.941 65.189 19.852 0 40.242-7.672 40.242-7.672s6.913-2.071 5.165-10.12c-.592-2.768-4.062-21.784-4.062-21.784-.834-4.675-2.744-8.344-9.361-7.349-3.282.522-9.442 1.498-17.7 1.498-17.243-.048-27.33-7.984-27.33-27.763v-114.185h48.339c7.693 0 13.88-6.211 13.88-13.883v-14.305c0-7.64-6.187-13.867-13.88-13.867m-1152.137-440.296c-4.412-6.273-13.049-7.809-19.336-3.4l-340.549 238.45c2.499 3.567 6.65 5.921 11.349 5.913l.024.008v-.008h337.148c7.664 0 13.875-6.214 13.875-13.886v-219.337c-.051-2.677-.861-5.369-2.512-7.739m-340.534-3.412c-6.287-4.401-14.938-2.873-19.338 3.4-1.649 2.367-2.475 5.071-2.512 7.75l.013 219.754 162.124-132.811-140.286-98.094"/></g></svg>