<svg xmlns="http://www.w3.org/2000/svg" viewBox="0 0 150 35" enable-background="new 0 0 150 35"><path d="M45 19.5l-1.7 4.7c0 .1-.1.1-.1.1h-.8c-.1 0-.1 0-.1-.1l4.6-12.5c0-.1.1-.2.1-.6 0 0 0-.1.1-.1h1.2c.1 0 .1 0 .1.1l4.8 13.1c0 .1 0 .1-.1.1h-.8c-.1 0-.1 0-.1-.1l-1.7-4.8h-5.5zm5.1-.9c-.5-1.3-2-5.5-2.4-6.8-.4 1.3-1.5 4.2-2.4 6.8h4.8zm3.8 1c0-3 2.2-5 5.2-5 .8 0 1.2.1 1.6.2v-4.8c0-.1 0-.1.1-.1h.8c.1 0 .1 0 .1.1v13.7c0 .1 0 .1-.1.1-1 .5-2 .7-3 .7-2.6 0-4.7-1.7-4.7-4.9zm6.9-3.9c-.4-.2-1-.3-1.7-.3-2.8 0-4.2 1.9-4.2 4.1 0 3 2 4.1 3.9 4.1.6 0 1.5-.1 2-.3v-7.6zm11.8 3.8c0 3-1.8 5-4.3 5-3.1 0-4.4-2.6-4.4-5 0-2.8 1.8-5 4.4-5 2.5.1 4.3 2 4.3 5zm-7.8 0c0 2.2 1.2 4.1 3.5 4.1 1.6 0 3.3-1.2 3.3-4.1 0-2.1-1-4.1-3.4-4.1-2 0-3.4 1.7-3.4 4.1zm10.7-9.6c.1 0 .1 0 .1.1v5.1c.7-.3 1.5-.5 2.5-.5 2.7 0 4.4 1.9 4.4 4.6 0 3.5-2.6 5.3-5.3 5.3-1 0-1.7-.1-2.5-.4-.1 0-.1-.1-.1-.2v-13.9c0-.1 0-.1.1-.1h.8zm2.5 5.5c-1 0-1.7.2-2.4.5v7.5c.5.1 1 .2 1.7.2 2.2 0 4.2-1.5 4.2-4.4 0-2.2-1.3-3.8-3.5-3.8zm6.9 4c-.1 2.4 1.2 4.2 3.7 4.2.9 0 1.7-.1 2.5-.6.1 0 .1 0 .1.1v.7c0 .1 0 .1-.1.1-.6.3-1.5.6-2.7.6-3.3 0-4.5-2.5-4.5-4.9 0-2.8 1.6-5 4.2-5 2.8 0 3.7 2.3 3.7 3.8 0 .4 0 .7-.1.8 0 .1-.1.1-.1.1-.3 0-1.3.1-2.1.1h-4.6zm4.5-.8h1.5v-.3c0-.9-.5-2.9-2.8-2.9-1.9 0-2.9 1.5-3.1 3.2h4.4zm10.6-6.7h-4.5c-.1 0-.1 0-.1-.1l.2-.7c0-.1 0-.1.1-.1h9.6c.1 0 .1 0 .1.1l.1.7c0 .1 0 .1-.1.1h-4.4v12.3c0 .1 0 .1-.1.1h-.7c-.1 0-.1 0-.1-.1v-12.3zm5 2.8c.1 0 .1.1 0 0 2.1 5.1 3 7.5 3.3 8.3.6-1.7 1.6-4.2 3.1-8.2 0 0 0-.1.1-.1h.8c.1 0 .1.1.1.1-1.5 4.3-3.5 9.1-5.7 14 0 .1-.1.1-.2.1l-.8.1c-.1 0-.1-.1-.1-.1.6-1.2 1.4-3.1 2.1-4.7v-.2c-.4-1.1-2.5-6-3.7-9.1 0-.1 0-.1.1-.1h.9zm16.9 4.5c0 3.6-2.8 5.4-5.5 5.4-.7 0-1-.1-1.4-.1v4.4c0 .1 0 .1-.1.1-.2 0-.7.1-.8.1-.1 0-.1 0-.1-.1v-13c0-.1 0-.4-.1-.6 0 0 0-.1.1-.1.5-.2 1.7-.8 3.4-.8 2.7.1 4.5 1.9 4.5 4.7zm-6.9-3.3v7.6c.4.1.9.1 1.5.1 2.3 0 4.5-1.5 4.5-4.4 0-2.3-1.3-3.8-3.7-3.8-.9 0-1.7.2-2.3.5zm9.3 3.5c-.1 2.4 1.2 4.2 3.7 4.2.9 0 1.7-.1 2.5-.6.1 0 .1 0 .1.1v.7c0 .1 0 .1-.1.1-.6.3-1.5.6-2.7.6-3.3 0-4.5-2.5-4.5-4.9 0-2.8 1.6-5 4.2-5 2.8 0 3.7 2.3 3.7 3.8 0 .4 0 .7-.1.8 0 .1-.1.1-.1.1-.3 0-1.3.1-2.1.1h-4.6zm4.4-.8h1.5v-.3c0-.9-.5-2.9-2.8-2.9-1.9 0-2.9 1.5-3.1 3.2h4.4zm5.4 5.6l-.9.1c-.1 0-.1 0-.1-.1v-14.2c0-.1 0-.1.1-.1h.8c.1 0 .1 0 .1.1v14.2zm.1-5c.9-.8 4.1-3.8 4.6-4.4 0-.1.1-.1.2-.1h.9c.1 0 .1.1 0 .1-.5.6-4 3.6-4.7 4.3v.1c1.4 1.3 3.7 3.5 5.3 5 .1.1 0 .1 0 .1h-1.1c-.1 0-.1 0-.2-.1-1.3-1.2-4.1-3.8-5.1-4.8.1-.1.1-.1.1-.2zm7.6-7.6c0-.4.3-.7.6-.7.4 0 .7.3.7.7 0 .4-.3.7-.7.7-.4 0-.6-.3-.6-.7zm.2 3.3c0-.1 0-.1.1-.1h.8c.1 0 .1 0 .1.1v9.4c0 .1 0 .1-.1.1h-.7c-.1 0-.1 0-.1-.1v-9.4zm7.5 9.2c0 .1 0 .1-.1.1-.4.2-.9.3-1.3.3-1.3 0-2.1-.6-2.1-2.4v-6.5h-1.5c-.1 0-.1-.1-.1-.1v-.6c0-.1 0-.1.1-.1h1.5c0-.8.1-2.3.2-2.7 0-.1 0-.1.1-.1l.7-.1h.1c-.1.7-.1 1.9-.1 2.9h2.3c.1 0 .1 0 .1.1v.6c0 .1 0 .1-.1.1h-2.3v6.5c0 .9.4 1.5 1.3 1.5.3 0 .7 0 1.1-.2.1 0 .1 0 .1.1v.6z"/><path fill-rule="evenodd" clip-rule="evenodd" d="M0 0v35h35v-35h-35zm27 15h-5v13h-7.1l-2.9-2.4v-10.6h-1.9l-2.5-3h6.4v13h5v-13h5v-5.3l3 3.3v5z"/></svg>