<svg xmlns="http://www.w3.org/2000/svg" viewBox="0 0 841.875 310.6875" height="310.688" width="841.875"><defs><clipPath id="a"><path d="M0 2485.53v-2485.53h6735v2485.53h-6735z"/></clipPath></defs><g clip-path="url(#a)"><path d="M46.544 310.688c25.125 0 45.721-18.948 45.721-43.248 0-24.715-20.596-44.075-45.721-44.075-25.95 0-46.544 19.36-46.544 44.075 0 24.301 20.595 43.248 46.544 43.248" fill="#49beed"/><path d="M475.74 240.936v-143.32c0-6.529 4.159-10.351 14.461-10.351h8.835v-57.504h-171.306l-26.336 127.996-26.336-127.996h-169.047v57.504h13.357c6.319 0 9.941 4.338 9.941 10.351v143.32c0 5.094-3.623 10.35-9.941 10.35h-13.357v55.587h124.264v-55.587h-15.964v-136.487l50.517 192.075h73.127l50.517-192.075v136.487h-15.961v55.587h126.524v-55.587h-11.366c-9.95 0-11.93-6.009-11.93-10.35m100.383-153.614c25.128 0 45.722-18.949 45.722-43.25 0-24.715-20.595-44.075-45.722-44.075-25.949 0-46.545 19.36-46.545 44.075 0 24.301 20.596 43.25 46.545 43.25m67.73 219.533v-55.596l-9.174.01c-3.737 0-8.651-3.576-8.651-9.201v-143.621l-111.394-.003v61.924h15.246c4.053 0 9.453 4.326 9.453 9.203v72.497c0 5.239-4.201 9.201-9.201 9.201h-14.731v55.586h128.452m125.958-151.378c15.956 0 29.604 10.336 35.199 24.086h36.866v-71.255c-16.25-6.902-43.843-13.471-74.511-13.471-76.29 0-119.989 38.335-119.989 106.191 0 67.47 39.097 109.66 119.986 109.66 30.669 0 57.014-9.252 74.514-19.221v-58.154h-38.068c-6.192 12.5-16.438 21.246-33.998 21.246 0 0-34.344 3.999-34.344-51.311 0 0-1.396-47.771 34.344-47.771"/></g></svg>