<svg xmlns="http://www.w3.org/2000/svg" width="164.977" height="89.7" viewBox="278.977 164.753 164.977 89.7" enable-background="new 278.977 164.753 164.977 89.7"><path fill="#231F20" d="M306 193.475l11.245 13.592.364-.405c1.212-1.32 2.36-2.613 3.438-3.885 1.079-1.264 3.845-4.274 4.844-5.568l4.421 8.038c-.755 1.08-1.747 2.333-2.975 3.763-1.225 1.431-2.689 3.074-4.388 4.933l11.571 14.281h-11.731l-6.23-7.645c-5.719 5.908-11.664 8.859-17.839 8.859-5.529 0-10.222-1.765-14.078-5.301-3.775-3.558-5.664-7.954-5.664-13.185 0-6.23 2.993-11.408 8.979-15.535l4.087-2.791.282-.202.567-.445c-4.124-4.396-6.189-8.723-6.189-12.986 0-4.207 1.376-7.631 4.127-10.274 2.805-2.641 6.419-3.965 10.841-3.965 4.288 0 7.833 1.28 10.638 3.843 2.805 2.565 4.207 5.798 4.207 9.709 0 2.696-.767 5.138-2.306 7.321-1.511 2.186-4.248 4.799-8.211 7.848zm-7.484 5.299l-.527.365c-3.856 2.67-6.487 4.813-7.889 6.431-1.374 1.62-2.061 3.332-2.061 5.138 0 2.59 1.038 4.962 3.113 7.12 2.158 2.076 4.53 3.115 7.122 3.115 3.639 0 7.833-2.387 12.579-7.159l-12.337-15.01zm2.023-11.933l.768-.567c1.322-.995 2.414-1.867 3.276-2.608.862-.742 1.485-1.37 1.861-1.881.809-.997 1.214-2.226 1.214-3.682 0-1.645-.554-2.979-1.659-4.005-1.107-1.026-2.592-1.539-4.451-1.539-1.698 0-3.128.527-4.288 1.578-1.158.999-1.74 2.279-1.74 3.845 0 1.833.728 3.639 2.184 5.42l2.346 2.832c.084.135.247.338.489.607zm20.545-1.132c2.208.224 4.256.35 6.13.386 1.881.041 3.965.057 6.248.057 2.207 0 4.456-.016 6.741-.057 2.283-.036 4.532-.161 6.74-.386v1.325c-1.62.149-3.166.63-4.641 1.437-1.471.812-2.208 2.139-2.208 3.978 0 1.478.475 3.449 1.437 5.915.956 2.47 2.077 5.122 3.368 7.955 1.289 2.841 2.618 5.732 3.98 8.678 1.363 2.948 2.45 5.675 3.259 8.177.371-.735.942-1.953 1.714-3.647.775-1.695 1.659-3.63 2.653-5.799.994-2.174 1.992-4.439 2.982-6.797.999-2.357 1.917-4.568 2.769-6.632.843-2.062 1.542-3.867 2.094-5.414.557-1.549.832-2.579.832-3.096 0-.884-.205-1.585-.608-2.1-.405-.517-.902-.942-1.494-1.274-.59-.328-1.29-.584-2.104-.773-.805-.181-1.585-.386-2.317-.608v-1.325c1.691.224 3.391.35 5.082.386 1.695.041 3.427.057 5.197.057 1.692 0 3.354-.016 4.973-.057 1.618-.036 3.277-.161 4.971-.386v1.325c-2.061.296-4.069 1.567-6.022 3.813-1.953 2.249-3.754 4.81-5.41 7.685-1.661 2.873-3.121 5.69-4.371 8.45-1.252 2.765-2.21 4.81-2.875 6.137-3.088 6.408-5.893 11.899-8.398 16.467-2.506 4.567-4.772 8.382-6.797 11.438-2.026 3.06-3.87 5.474-5.525 7.24-1.655 1.771-3.242 3.113-4.754 4.033-1.51.921-2.982 1.51-4.416 1.77-1.436.257-2.93.385-4.48.385-1.327 0-2.631-.185-3.922-.554-1.288-.368-2.434-.938-3.424-1.711-.997-.773-1.81-1.752-2.437-2.928-.622-1.184-.936-2.579-.936-4.201 0-1.476.534-2.799 1.598-3.979 1.073-1.178 2.34-1.769 3.818-1.769 1.695 0 3.054.424 4.089 1.272 1.031.845 1.542 2.154 1.542 3.924 0 1.25-.294 2.302-.882 3.151-.588.843-.882 1.451-.882 1.822 0 .443.532.718 1.603.831 1.067.11 2.114.163 3.151.163 2.206 0 4.382-.904 6.517-2.708 2.136-1.806 4.032-3.868 5.69-6.187 1.661-2.323 3.002-4.533 4.037-6.63 1.033-2.102 1.546-3.449 1.546-4.035 0-.22-.258-.979-.771-2.265-.52-1.289-1.218-2.946-2.098-4.979-.888-2.022-1.883-4.286-2.988-6.793-1.105-2.507-2.207-4.992-3.311-7.46-1.107-2.467-2.213-4.864-3.323-7.184-1.101-2.321-2.059-4.292-2.871-5.913-.735-1.691-1.363-3.056-1.877-4.089-.517-1.031-1.144-1.861-1.876-2.487-.737-.624-1.625-1.121-2.654-1.492-1.033-.368-2.398-.773-4.089-1.216v-1.326zm60.602 17.902c0 3.836.501 7.003 1.487 9.508 1.003 2.504 2.251 4.494 3.766 5.967 1.507 1.476 3.126 2.507 4.86 3.093 1.732.592 3.334.886 4.808.886 3.096 0 5.897-.498 8.395-1.492 2.509-.993 4.83-2.561 6.969-4.697l1.876 1.768c-3.018 3.242-6.116 5.71-9.282 7.405-3.169 1.695-6.964 2.543-11.384 2.543-3.173 0-6.006-.628-8.512-1.881-2.507-1.25-4.641-2.909-6.412-4.973-1.766-2.061-3.109-4.421-4.033-7.075-.922-2.648-1.381-5.375-1.381-8.177 0-2.798.459-5.527 1.381-8.176.924-2.653 2.267-5.011 4.033-7.073 1.77-2.064 3.905-3.721 6.412-4.975 2.505-1.25 5.339-1.879 8.512-1.879 5.82 0 10.502 1.583 14.04 4.752 3.533 3.171 5.703 7.997 6.516 14.477h-32.051v-.001zm21.555-3.313c-.226-1.989-.52-3.775-.889-5.36-.366-1.583-.957-2.909-1.764-3.976-.817-1.071-1.887-1.881-3.206-2.432-1.331-.556-3.023-.832-5.084-.832-1.546 0-2.968.389-4.256 1.162-1.293.771-2.394 1.768-3.316 2.982-.924 1.218-1.625 2.581-2.104 4.089-.479 1.512-.716 2.97-.716 4.367h21.335zm7.444-10.72v-1.77c2.356-.07 4.381-.66 6.083-1.767 1.695-1.105 3.162-2.505 4.417-4.2 1.253-1.695 2.301-3.574 3.151-5.637.843-2.059 1.601-4.05 2.267-5.967h1.542v16.024h15.144v3.316h-15.144v25.751c0 .958.061 1.897.171 2.82.107.922.33 1.75.661 2.485.33.737.807 1.327 1.434 1.768.628.443 1.494.663 2.598.663 2.214 0 4.055-.479 5.524-1.434 1.478-.959 2.947-2.172 4.428-3.651l.992 1.106c-1.255 1.106-2.473 2.231-3.646 3.368-1.18 1.148-2.416 2.179-3.7 3.099-1.291.92-2.692 1.657-4.203 2.208-1.516.554-3.149.833-4.921.833-3.096 0-5.193-.94-6.298-2.82-1.109-1.881-1.661-4.109-1.661-6.688v-29.508h-8.839v.001z"/></svg>