<svg xmlns="http://www.w3.org/2000/svg" viewBox="0 0 522.774 42.511" enable-background="new 0 0 522.774 42.511"><g fill-rule="evenodd" clip-rule="evenodd"><path d="M56.836.09h-36.92l5.298 9.242h2.129l.31.008 24.791.001c.643 0 2.195.318 2.203 2.387v19.134c-.008 2.073-1.56 2.387-2.203 2.387l-31.257.075-.017-7.841h25.731v-8.798l-26.288.035-9.924-16.696h-10.689l11.978 20.854-.012 21.549h8.937v.008h36.51c4.111 0 6.503-3.58 6.503-10.754v-22.309c-.001-6.153-2.393-9.282-7.08-9.282"/><path d="M189.096 25.483h-29.315v17.027h-9.189v-33.867c0-5.796 3.025-8.643 8.822-8.643h31.089c5.238 0 7.81 3.128 7.81 9.284v33.226h-9.187l-.03-17.027zm-.065-9.18v-4.577c.053-1.96-1.794-2.486-2.25-2.486h-24.796c-.639 0-2.197.32-2.204 2.392v4.67h29.25zm76.525 9.18v16.953h-9.191v-42.399h9.191v16.284h16.069l9.663-16.297h10.681l-11.979 20.854 11.979 21.604h-10.613l-9.834-16.999zm212.191 17.028v-42.511h45.027v9.294h-35.907v7.033h35.907v9.171h-35.907v7.775h35.907v9.238zm-20.837-9.317c.635 0 2.192-.319 2.198-2.39v-2.987c-.006-2.073-1.564-2.386-2.198-2.386l-29.242-.008c-4.326 0-6.21-3.167-6.21-9.6v-6.516c0-6.159 2.213-9.283 6.525-9.283h41.037l-5.43 9.246-30.746-.018c-.638 0-2.189.317-2.207 2.391v2.304c.019 2.075 1.569 2.389 2.207 2.389l28.488-.015c4.775 0 7.174 2.814 7.174 9.519v5.802c0 7.256-2.398 10.84-7.174 10.84h-41.61l5.607-9.274 31.581-.014zm-207.337-23.871l-32.493.018c-.642 0-2.195.318-2.205 2.387v19.135c.01 2.073 1.563 2.387 2.205 2.387l32.526-.013v9.199h-36.916c-4.689 0-7.086-3.58-7.086-10.754v-22.31c0-6.153 2.397-9.282 7.086-9.282h36.916v9.242l-.033-.009zm-108.854-.847c0-6.161-2.484-8.452-7.077-8.399h-39.64v42.393h39.64c4.593.012 7.077-2.053 7.077-8.211v-7.348c0-2.382-.458-4.213-1.323-5.542.865-1.332 1.323-3.162 1.323-5.538v-7.355zm-9.412 22.303c.055 1.965-1.79 2.491-2.248 2.491l-25.817-.013v-7.774l25.817-.013c.458 0 2.303.524 2.248 2.489v2.82zm0-16.974c.055 1.963-1.79 2.486-2.248 2.486l-25.817-.012v-6.978l25.817-.006c.458 0 2.303.523 2.248 2.482v2.028zm222.903-5.329c0-6.161-2.484-8.452-7.082-8.399h-39.627v42.393h39.627c4.598.012 7.082-2.053 7.082-8.211v-7.348c0-2.382-.456-4.213-1.325-5.542.869-1.332 1.325-3.162 1.325-5.538v-7.355zm-9.407 22.303c.05 1.965-1.799 2.491-2.254 2.491l-25.816-.013v-7.774l25.816-.013c.455 0 2.304.524 2.254 2.489v2.82zm0-16.974c.05 1.963-1.799 2.486-2.254 2.486l-25.816-.012v-6.978l25.816-.006c.455 0 2.304.523 2.254 2.482v2.028zm57.779 11.678h-29.309v17.027h-9.191v-33.867c0-5.796 3.032-8.643 8.827-8.643h31.09c5.229 0 7.805 3.128 7.805 9.284v33.226h-9.193l-.029-17.027zm-.057-9.18l-.004-4.577c.051-1.96-1.788-2.486-2.254-2.486h-24.789c-.646 0-2.197.32-2.205 2.392v4.67h29.252z"/></g></svg>